# xmcd
#
# Track frame offsets: 
#        150
#        18790
#        36160
#        61018
#        88939
#        99169
#        109774
#        138757
#        143399
#        155917
#        175422
#        197559
#        212462
#        229414
#
# Disc length: 3404 seconds
#
# Revision: 0
# Processed by: cddbd v1.5.2PL0 Copyright (c) Steve Scherf et al.
# Submitted via: ExactAudioCopy v1.0b3
#
DISCID=b10d4a0e
DTITLE=Kalle Sändare - Boxen e' klar - CD 18 - På sååå sätt!
DYEAR=2014
DGENRE=Comedy
TTITLE0=Dragspel bytes mot durspel
TTITLE1=Målning och tapetsering utföres
TTITLE2=Nät o. dyl. repareras
TTITLE3=Stålottoman säljes
TTITLE4=I speak swedish
TTITLE5=Väderkvarn säljes
TTITLE6=Sofflock köpes
TTITLE7=Är detta kurhotellet
TTITLE8=Havrehalm säljes
TTITLE9=Exklusiv lekstuga till salu
TTITLE10=Ljuslåda säljes
TTITLE11=Extrakäck
TTITLE12=Beg. lådsåg köpes
TTITLE13=Staket köpes
EXTD=
EXTT0=
EXTT1=
EXTT2=
EXTT3=
EXTT4=
EXTT5=
EXTT6=
EXTT7=
EXTT8=
EXTT9=
EXTT10=
EXTT11=
EXTT12=
EXTT13=
PLAYORDER=
